<?xml version="1.0" standalone="no"?>
<!DOCTYPE svg PUBLIC "-//W3C//DTD SVG 20010904//EN"
 "http://www.w3.org/TR/2001/REC-SVG-20010904/DTD/svg10.dtd">
<svg version="1.0" xmlns="http://www.w3.org/2000/svg"
 width="720.000000pt" height="540.000000pt" viewBox="0 0 720.000000 540.000000"
 preserveAspectRatio="xMidYMid meet">

<g transform="translate(0.000000,540.000000) scale(0.100000,-0.100000)"
fill="#000000" stroke="none">
<path d="M4521 4730 c-97 -14 -121 -44 -206 -257 -46 -115 -98 -227 -117 -250
-6 -8 -39 4 -117 42 -157 78 -273 108 -493 130 -67 6 -78 -5 -78 -79 0 -38 -3
-46 -19 -46 -23 0 -31 19 -31 77 l0 46 -61 -6 c-178 -19 -347 -113 -398 -222
-14 -30 -21 -64 -21 -105 l0 -60 -69 0 c-140 0 -515 -30 -646 -51 -69 -11
-174 -44 -226 -70 -53 -26 -220 -153 -326 -247 -50 -45 -104 -84 -120 -88 -15
-4 -42 -17 -60 -30 -30 -23 -77 -88 -78 -109 -1 -19 -28 -65 -39 -66 -6 0 52
-9 129 -19 77 -11 183 -26 235 -34 274 -46 432 -56 860 -56 228 -1 576 -7 774
-14 384 -15 490 -12 996 24 151 11 343 23 425 26 177 6 338 37 331 63 -9 29
-27 243 -22 249 8 8 85 -161 79 -172 -3 -5 -1 -6 4 -3 7 4 13 -8 17 -28 4 -19
11 -35 16 -35 13 0 0 -32 -18 -46 -12 -8 -1 -22 54 -72 38 -34 71 -62 75 -62
3 0 44 29 92 64 61 46 92 63 106 59 23 -6 27 -18 11 -28 -5 -3 -10 -20 -10
-37 0 -16 -7 -42 -16 -58 -11 -18 -14 -37 -10 -54 8 -32 106 -136 128 -136 18
0 28 39 28 106 0 23 4 45 9 48 5 3 71 12 147 20 152 16 320 50 343 69 22 18
51 88 51 125 0 38 -19 79 -48 105 -30 27 -179 47 -357 48 -88 1 -155 5 -163
12 -14 11 -58 -23 -68 -55 -4 -13 -15 -18 -38 -18 l-33 0 -14 123 c-8 67 -14
194 -14 282 0 148 1 160 19 163 10 2 21 0 25 -6 12 -18 105 -70 117 -65 7 2
17 18 23 35 l11 31 455 -6 c250 -4 460 -8 466 -9 18 -4 21 16 5 37 -13 18 -39
20 -362 33 -434 16 -474 19 -474 38 0 11 15 14 63 14 77 0 564 -28 670 -38 57
-6 77 -5 77 4 0 18 -21 32 -60 38 -55 9 -468 35 -655 41 -125 4 -175 9 -192
20 -30 20 -66 19 -86 -2 -14 -16 -28 -17 -114 -12 -54 4 -144 7 -200 8 l-102
1 -34 73 c-19 39 -42 97 -52 127 -38 118 -98 266 -124 305 -18 28 -39 44 -66
53 -50 16 -317 24 -404 12z m229 -174 c45 -16 50 -51 20 -148 -18 -59 -31 -80
-75 -124 -30 -30 -59 -54 -66 -54 -23 0 -89 83 -109 137 -22 60 -27 167 -8
179 39 24 182 30 238 10z m-1021 -343 c83 -16 211 -61 211 -74 0 -4 -18 -14
-40 -20 -22 -7 -40 -15 -40 -18 0 -3 -64 -4 -142 -3 -203 6 -264 -3 -301 -40
-25 -24 -34 -28 -52 -20 -11 5 -63 8 -114 6 -96 -4 -134 6 -125 31 3 8 22 19
41 26 19 6 51 29 71 50 77 82 270 106 491 62z m1850 -109 c2 -2 1 -10 -2 -19
-5 -11 -21 -15 -62 -15 -30 0 -55 -4 -55 -10 0 -5 5 -10 12 -10 6 0 9 -3 6 -6
-3 -3 -15 0 -26 7 -16 10 -17 16 -9 39 10 27 12 27 71 22 34 -2 63 -6 65 -8z
m-682 -200 c-3 -3 -12 -4 -19 -1 -8 3 -5 6 6 6 11 1 17 -2 13 -5z m154 -37
c34 -22 70 -100 54 -115 -10 -10 -62 55 -70 86 -3 14 -14 32 -23 39 -30 22 4
14 39 -10z m626 -389 c-3 -8 -6 -5 -6 6 -1 11 2 17 5 13 3 -3 4 -12 1 -19z
m-86 -145 c-8 -15 -10 -15 -11 -2 0 17 10 32 18 25 2 -3 -1 -13 -7 -23z m-48
-12 c-3 -11 -14 -22 -25 -24 -19 -5 -19 -4 3 19 27 29 29 29 22 5z"/>
<path d="M4560 4548 c-19 -5 -38 -15 -42 -21 -23 -37 11 -202 42 -202 9 0 22
20 32 54 21 66 43 91 75 89 17 -2 25 -10 29 -28 3 -14 7 -33 9 -44 2 -12 -3
-20 -16 -23 -10 -3 -19 -12 -19 -19 0 -8 -10 -14 -25 -14 -16 0 -25 6 -25 15
0 26 -15 16 -33 -22 -16 -36 -16 -38 5 -60 12 -13 27 -23 34 -23 24 0 85 62
110 112 26 52 47 139 38 162 -12 30 -141 45 -214 24z m120 -16 c0 -4 15 -6 33
-5 39 4 67 -11 51 -27 -8 -8 -19 -8 -38 0 -35 13 -69 13 -61 0 3 -5 -3 -10
-15 -10 -13 0 -19 4 -14 11 5 8 -8 9 -46 4 -42 -6 -51 -4 -48 6 2 7 15 16 29
20 34 10 109 10 109 1z m-153 -34 c-3 -8 -6 -5 -6 6 -1 11 2 17 5 13 3 -3 4
-12 1 -19z"/>
<path d="M5784 3801 c39 -40 57 -50 104 -60 31 -7 104 -24 161 -37 57 -14 105
-23 107 -22 2 2 10 21 19 41 12 30 13 38 3 42 -57 19 -381 85 -420 85 -19 0
-16 -6 26 -49z"/>
<path d="M5626 3704 c-9 -22 -7 -142 2 -147 4 -3 8 33 10 79 2 84 0 98 -12 68z"/>
<path d="M6628 3337 c-110 -102 -213 -600 -188 -907 13 -152 12 -210 -1 -210
-6 0 -42 16 -80 35 -81 41 -138 46 -146 15 -3 -11 -10 -17 -15 -14 -14 9 -58
-36 -58 -58 0 -11 -5 -16 -10 -13 -12 7 -87 -70 -96 -97 -3 -10 -9 -18 -14
-18 -5 0 -17 -15 -26 -32 -9 -18 -20 -35 -25 -38 -13 -9 -24 -64 -10 -56 6 4
11 13 11 21 0 8 6 18 14 22 7 4 36 35 64 68 47 56 71 81 131 136 l24 22 -6
-34 c-4 -19 -9 -63 -13 -99 -7 -64 -8 -66 -73 -130 -36 -36 -94 -99 -128 -140
-34 -41 -81 -89 -104 -105 -23 -17 -55 -42 -70 -56 l-28 -26 -5 36 c-3 20 -8
108 -11 196 -18 481 -59 744 -142 913 -98 199 -194 173 -321 -90 -81 -168
-149 -337 -166 -411 -7 -34 -23 -104 -35 -156 -33 -141 -58 -300 -91 -560 -16
-128 -31 -235 -33 -237 -2 -2 -91 -20 -198 -39 -174 -33 -217 -37 -420 -42
l-227 -6 -54 74 c-72 98 -272 388 -287 417 -9 16 -9 27 -1 42 9 17 17 20 48
14 40 -6 50 -16 178 -169 254 -304 235 -290 388 -279 55 4 110 10 121 14 28
11 155 139 155 156 0 24 -95 204 -157 299 -82 124 -156 209 -199 230 -36 17
-41 16 -263 -24 -264 -48 -450 -77 -813 -127 -226 -31 -300 -36 -523 -41 -381
-8 -984 17 -1290 53 -130 16 -155 22 -445 117 -139 45 -385 140 -434 168 -26
15 -44 -5 -61 -72 -14 -52 -35 -319 -30 -386 1 -18 3 -46 4 -62 0 -16 13 -41
29 -58 25 -28 94 -73 111 -73 4 0 38 51 76 113 116 192 145 234 171 246 14 6
23 8 21 4 -50 -92 -283 -460 -297 -468 -4 -3 -44 3 -88 12 -72 15 -81 15 -95
1 -12 -11 -14 -24 -8 -44 7 -26 14 -30 87 -46 43 -10 89 -20 101 -23 14 -3 24
-15 28 -37 12 -59 79 -180 130 -236 53 -59 124 -98 223 -123 28 -7 52 -16 52
-19 0 -3 -15 -12 -34 -18 -19 -7 -58 -35 -88 -63 -43 -41 -50 -52 -38 -59 9
-5 70 -18 135 -29 66 -11 274 -49 462 -85 189 -36 357 -66 375 -66 18 0 68 -5
113 -12 73 -10 86 -10 147 10 37 12 70 22 73 22 3 0 13 -16 21 -35 8 -19 18
-35 22 -35 4 0 34 -5 67 -10 94 -16 215 -32 270 -35 28 -2 120 -13 205 -25
294 -41 656 -68 950 -71 74 -1 146 -5 160 -9 14 -3 147 -3 295 1 286 7 430 24
507 59 54 25 66 25 70 1 3 -18 5 -18 73 0 39 11 122 31 185 45 299 65 398 100
465 165 17 16 36 29 42 29 21 0 105 102 100 122 -3 10 -1 16 4 12 5 -3 9 0 9
5 0 6 -5 11 -11 11 -5 0 -7 5 -3 12 5 8 2 9 -10 5 -12 -5 -15 -3 -9 6 15 26
28 34 45 29 10 -2 18 1 18 7 0 6 12 18 26 27 21 15 27 15 34 4 7 -12 21 -10
82 9 40 13 83 30 95 37 13 8 35 21 50 31 l27 16 -23 9 c-13 4 -54 11 -92 14
-58 6 -72 4 -88 -10 -19 -17 -22 -16 -65 9 -25 15 -48 30 -50 33 -2 4 5 52 15
107 11 55 25 154 32 220 l12 120 30 3 c17 1 40 8 53 14 27 14 42 0 42 -39 0
-13 5 -23 10 -23 6 0 58 29 115 65 l105 65 28 -30 c15 -17 53 -41 85 -54 l57
-23 -45 -17 c-51 -20 -71 -45 -108 -136 -38 -93 -78 -300 -58 -300 11 0 155
101 159 112 2 4 9 8 16 8 13 0 175 119 243 178 62 55 67 59 93 67 12 4 41 16
64 26 l41 18 -43 17 -43 18 50 18 c59 22 81 50 110 135 25 74 58 258 67 376 6
76 4 87 -10 87 -9 0 -16 -4 -16 -10 0 -5 -5 -10 -12 -10 -6 0 -3 8 7 20 10 11
22 17 28 13 7 -4 8 11 4 45 -3 28 -2 54 3 57 4 3 6 47 3 98 -3 50 -4 125 -3
165 1 40 -2 72 -7 71 -21 -4 -25 2 -11 14 14 10 15 21 7 70 -7 45 -6 62 5 80
23 37 29 82 12 96 -12 10 -13 17 -4 34 15 29 3 295 -17 385 -18 80 -47 132
-73 132 -11 0 -30 -10 -44 -23z m57 -510 c14 -28 25 -58 24 -66 0 -9 -9 3 -19
27 -22 48 -43 61 -72 43 -28 -17 -30 -10 -7 26 26 41 42 34 74 -30z m32 -109
c-3 -8 -6 -5 -6 6 -1 11 2 17 5 13 3 -3 4 -12 1 -19z m-140 -274 c-3 -3 -12
-4 -19 -1 -8 3 -5 6 6 6 11 1 17 -2 13 -5z m8 -133 c-3 -11 -1 -22 5 -26 12
-7 13 -64 1 -83 -6 -10 -10 -10 -20 2 -11 13 -10 19 4 33 12 11 14 18 6 21
-18 6 -13 72 6 72 3 0 2 -9 -2 -19z m135 -11 c0 -5 -4 -10 -10 -10 -5 0 -10 5
-10 10 0 6 5 10 10 10 6 0 10 -4 10 -10z m-245 -396 c-5 -37 -11 -44 -56 -69
-48 -25 -50 -26 -40 -6 7 11 9 21 5 21 -3 0 -1 7 6 15 14 17 30 76 34 122 1
17 10 41 20 52 10 11 15 25 11 31 -3 6 0 27 7 48 12 36 13 33 16 -68 2 -58 0
-124 -3 -146z m105 86 c0 -5 -2 -10 -4 -10 -3 0 -8 5 -11 10 -3 6 -1 10 4 10
6 0 11 -4 11 -10z m-910 -116 c0 -8 -5 -12 -10 -9 -6 4 -8 11 -5 16 9 14 15
11 15 -7z m1037 -86 c-3 -8 -6 -5 -6 6 -1 11 2 17 5 13 3 -3 4 -12 1 -19z
m-113 -93 c21 -32 32 -32 66 5 22 24 27 26 23 10 -7 -27 -51 -72 -66 -68 -16
5 -67 106 -67 132 1 14 6 8 14 -16 8 -21 21 -49 30 -63z m-1154 -14 c0 -15 -3
-31 -7 -35 -5 -4 -8 -31 -8 -58 0 -32 -5 -53 -12 -55 -10 -3 -13 11 -13 51 0
43 -3 56 -15 56 -8 0 -15 5 -15 10 0 6 7 10 16 10 8 0 20 13 25 30 13 35 29
30 29 -9z m227 7 c-3 -8 -6 -5 -6 6 -1 11 2 17 5 13 3 -3 4 -12 1 -19z m-62
-106 c-3 -3 -11 0 -18 7 -9 10 -8 11 6 5 10 -3 15 -9 12 -12z m35 -272 c0 -5
-14 -7 -32 -3 -46 8 -48 13 -5 13 21 0 37 -4 37 -10z m-3420 -91 c113 -5 272
-14 354 -21 l148 -12 -7 -45 c-7 -48 -24 -274 -25 -326 0 -29 -3 -31 -57 -43
-45 -9 -59 -9 -65 1 -5 6 -6 74 -2 150 4 98 3 137 -5 137 -16 0 -164 -68 -331
-153 -86 -43 -209 -95 -303 -126 l-157 -53 -48 50 c-55 58 -108 87 -211 118
l-74 21 61 28 c78 35 162 122 215 223 l38 72 132 -6 c73 -3 224 -9 337 -15z
m2313 -98 c2 -11 0 -24 -6 -30 -7 -7 6 -12 40 -16 48 -7 49 -8 59 -51 6 -24 9
-45 8 -47 -1 -1 -123 6 -271 15 -396 25 -490 26 -533 3 -26 -13 -53 -17 -109
-16 -66 2 -78 6 -98 27 -13 14 -21 30 -18 35 4 5 1 9 -5 9 -19 0 -1 18 44 43
35 20 65 26 149 32 72 5 107 3 111 -4 9 -14 63 -14 71 -1 10 16 145 13 145 -4
0 -10 30 -15 125 -20 105 -6 129 -4 147 9 22 15 22 15 -12 17 -32 1 -31 2 10
7 98 14 137 12 143 -8z m77 -6 c0 -8 -7 -15 -15 -15 -16 0 -20 12 -8 23 11 12
23 8 23 -8z m973 -55 c-3 -12 -8 -19 -11 -16 -5 6 5 36 12 36 2 0 2 -9 -1 -20z
m-2863 -284 c0 -2 -7 -7 -16 -10 -8 -3 -12 -2 -9 4 6 10 25 14 25 6z m-777
-83 c-7 -2 -19 -2 -25 0 -7 3 -2 5 12 5 14 0 19 -2 13 -5z m-75 -10 c-10 -2
-26 -2 -35 0 -10 3 -2 5 17 5 19 0 27 -2 18 -5z"/>
<path d="M3750 1086 c0 -9 37 -12 55 -5 15 6 11 8 -17 8 -21 1 -38 -1 -38 -3z"/>
<path d="M4220 1020 c0 -5 6 -10 14 -10 8 0 18 5 21 10 3 6 -3 10 -14 10 -12
0 -21 -4 -21 -10z"/>
<path d="M798 2799 c-10 -17 -18 -41 -18 -54 0 -13 -4 -26 -8 -29 -11 -7 -36
-172 -29 -190 3 -7 32 -28 64 -46 82 -46 89 -53 68 -60 -19 -7 121 -80 153
-80 10 0 30 12 44 28 32 34 98 129 97 139 0 5 -20 24 -45 43 -24 19 -99 90
-166 158 -68 67 -128 122 -133 122 -6 0 -18 -14 -27 -31z m64 -80 c13 -115 10
-166 -14 -193 -28 -32 -57 -22 -39 12 6 11 11 67 11 125 0 57 3 107 7 111 16
16 28 -4 35 -55z m118 -68 c0 -10 6 -21 14 -24 8 -3 12 -15 9 -31 -6 -29 28
-168 35 -145 3 8 14 24 25 37 16 17 18 25 9 34 -8 8 -15 8 -27 -2 -20 -17 -32
-5 -15 15 18 21 62 19 83 -5 16 -19 16 -23 1 -53 -9 -17 -22 -39 -29 -47 -8
-8 -14 -19 -14 -25 -1 -5 -11 -10 -23 -10 -16 0 -23 6 -22 17 1 13 -4 16 -26
11 -26 -5 -29 -3 -32 27 -3 30 -6 33 -38 35 -19 1 -41 -3 -48 -8 -9 -7 -17 -6
-25 2 -8 8 -7 19 8 44 22 38 73 87 92 87 7 0 13 5 13 11 0 5 -4 8 -9 5 -11 -7
-23 22 -15 35 10 16 34 9 34 -10z"/>
<path d="M931 2546 c-10 -12 -11 -20 -3 -28 16 -16 29 -5 22 21 -5 22 -7 22
-19 7z"/>
<path d="M4595 2700 c-87 -28 -99 -39 -24 -21 48 11 69 -1 51 -29 -18 -29 8
-27 37 4 16 17 19 26 11 31 -9 6 -9 10 1 16 22 13 33 10 20 -5 -7 -8 -8 -17
-3 -20 14 -9 33 19 26 38 -8 21 -12 20 -119 -14z"/>
<path d="M4515 2650 c-11 -5 -33 -13 -50 -20 -22 -8 -26 -13 -16 -20 16 -10
65 6 82 26 15 19 9 24 -16 14z"/>
<path d="M4310 2610 c-9 -6 -10 -10 -3 -10 6 0 15 5 18 10 8 12 4 12 -15 0z"/>
<path d="M4604 2603 c4 -22 14 -25 24 -6 8 15 7 19 -8 19 -9 0 -17 -6 -16 -13z"/>
<path d="M4232 2563 c-24 -5 -25 -28 -1 -28 8 0 16 -3 19 -7 3 -3 10 4 17 18
12 26 11 26 -35 17z"/>
<path d="M3680 2414 c0 -14 63 -115 89 -143 17 -18 39 -31 53 -30 23 0 23 0 2
9 -33 13 -41 32 -9 20 16 -6 33 -6 43 -1 9 5 36 12 60 16 23 4 42 10 42 14 0
9 -50 7 -72 -3 -28 -13 -63 -3 -60 16 4 22 -26 68 -44 68 -8 0 -14 7 -14 16 0
8 -5 12 -10 9 -6 -3 -8 -18 -6 -31 6 -34 -13 -27 -39 14 -18 29 -35 41 -35 26z"/>
<path d="M2275 2376 c-5 -2 -22 -7 -37 -10 -37 -8 -57 -70 -37 -111 24 -48 43
-53 94 -26 57 30 141 119 127 133 -10 10 -128 21 -147 14z m44 -63 c-20 -26
-31 -32 -46 -26 -20 8 13 43 40 43 17 0 18 -2 6 -17z"/>
<path d="M6099 2043 c-92 -85 -139 -149 -139 -187 0 -32 1 -31 101 66 87 85
102 104 106 138 3 22 3 40 0 40 -3 0 -34 -26 -68 -57z"/>
<path d="M5820 1071 c0 -16 6 -21 26 -21 33 0 30 33 -4 38 -17 3 -22 -2 -22
-17z"/>
</g>
</svg>
